<?xml version="1.0" encoding="UTF-8" standalone="no"?><!DOCTYPE svg PUBLIC "-//W3C//DTD SVG 1.1//EN" "http://www.w3.org/Graphics/SVG/1.1/DTD/svg11.dtd"><svg width="100%" height="100%" viewBox="0 0 23750 22571" version="1.1" xmlns="http://www.w3.org/2000/svg" xmlns:xlink="http://www.w3.org/1999/xlink" xml:space="preserve" xmlns:serif="http://www.serif.com/" style="fill-rule:evenodd;clip-rule:evenodd;stroke-linecap:round;stroke-linejoin:round;stroke-miterlimit:1.5;"><g id="Group-2" serif:id="Group 2"><path d="M8126.55,4081.463l134.65,3918.817l5132.146,3370.092l-5112.1,3218.229l-99.317,4680.258c0,0 -7.333,201.592 -54.4,291.796c-47.062,90.204 -277.204,758.779 -1795.017,849.158c-1517.808,90.375 -3480.7,-861.242 -4024.571,-2644.287c-22.979,-1576.225 -160.862,-11557.375 -114.9,-12461.271c45.962,-903.896 1876.733,-2489.542 4113.492,-2550.825c796.654,15.321 1816.929,779.342 1820.021,1328.037l-0.004,-0.004Z" style="stroke:#000;stroke-width:86.79px;"/><path d="M7690.033,4540.921l50.879,3303.392l47.629,2876.079l-30.587,3308.8l-20.842,4769.113c0,0 -6.233,189.246 -46.246,273.929c-40.012,84.683 -235.671,712.317 -1526.071,797.158c-1290.4,84.842 -2959.196,-808.504 -3421.579,-2482.367c-19.537,-1479.704 -136.762,-10849.65 -97.688,-11698.196c39.075,-848.546 1595.546,-2337.096 3497.175,-2394.621c677.292,14.383 1544.7,731.621 1547.329,1246.713Z" style="fill:#33ace3;"/><path d="M8165.408,8614.85l-16.533,5356.308l4422.633,-2595.263l-4406.1,-2761.046Z" style="fill:#33ace3;stroke:#000;stroke-width:135.42px;"/></g><g><path d="M15097.821,11391.913l-5450.771,3637.633c0,0 -1947.779,1765.3 24.704,4368.854c1216.046,1473.688 2987.446,1042.804 3284.279,717.25c296.829,-325.554 7038.933,-4756.587 7038.933,-4756.587c0,0 1845.646,-1933.367 1827.262,-3967.15c-3713.796,-43.946 -6724.404,0 -6724.404,0l-0.004,0Z" style="fill:#bb434d;stroke:#000;stroke-width:590.29px;"/><path d="M15095.513,12002.992l-4661.988,3237.9c0,0 -1979.246,1284.213 -377.671,3413.463c987.379,1205.217 2329.933,1171.904 2570.95,905.658c241.013,-266.246 6481.337,-4273.05 6481.337,-4273.05c0,0 1945.429,-1620.692 1930.5,-3283.967c-3015.45,-35.942 -5943.125,0 -5943.125,0l-0.004,-0.004Z" style="fill:#bb434d;"/><path d="M15097.821,11372.379l-5450.771,-3637.633c0,0 -1947.779,-1765.3 24.704,-4368.854c1216.046,-1473.688 2987.446,-1042.804 3284.279,-717.25c296.829,325.554 7038.933,4756.587 7038.933,4756.587c0,0 1896.896,1943.133 1878.512,3976.917c-182.233,994.406 -627.528,2730.783 -1879.327,3970.633c-1390.139,-2790.449 -4155.337,-3930.217 -4759.639,-3980.398l-136.692,-0.002Z" style="fill:#ffbc09;stroke:#000;stroke-width:590.29px;"/><path d="M15053.013,10706.229l-4661.987,-3237.9c0,0 -1979.246,-1284.212 -377.671,-3413.463c987.379,-1205.217 2329.933,-1171.904 2570.95,-905.658c241.012,266.246 6481.337,4273.05 6481.337,4273.05c0,0 1945.429,1620.692 1930.5,3283.967c-3015.45,35.942 -5943.125,0 -5943.125,0l-0.004,0.004Z" style="fill:#ffbc09;"/></g></svg>